Coordinates
version=1
nRows=25
nColumns=23
inDegrees=yes

Units are S.I. units (second, meters, Newtons, ...)
If the header above contains a line with 'inDegrees', this indicates whether rotational values are in degrees (yes) or radians (no).

endheader
time	pelvis_tilt	pelvis_list	pelvis_rotation	pelvis_tx	pelvis_ty	pelvis_tz	hip_flexion_r	hip_adduction_r	hip_rotation_r	knee_angle_r	knee_angle_r_beta	ankle_angle_r	subtalar_angle_r	mtp_angle_r	hip_flexion_l	hip_adduction_l	hip_rotation_l	knee_angle_l	knee_angle_l_beta	ankle_angle_l	subtalar_angle_l	mtp_angle_l
      0.00000000	     -4.98343637	      7.47242726	      1.14626339	      2.37513619	      1.01232809	      1.02174907	     -4.83372402	     -6.75794475	     -3.00842439	     77.78017549	      1.35752016	    -19.38843742	    -20.88086083	      0.00000000	     30.67983764	      8.87609699	    -10.64434898	     27.65321379	      0.48263963	      4.13722840	     -4.18874922	      0.00000000
      0.00666667	     -4.98249452	      7.60839753	      1.67491197	      2.37229462	      1.00675419	      1.02169431	     -2.84251547	     -6.85680652	     -2.95030101	     81.63765294	      1.42484584	    -18.94548880	    -21.62609963	      0.00000000	     31.52370733	      8.92699174	    -10.61880915	     31.64510576	      0.55231129	      5.75439164	     -4.89027878	      0.00000000
      0.01333333	     -5.07905514	      7.68219976	      2.11177912	      2.36948492	      1.00087289	      1.02182205	     -0.75445380	     -6.88831835	     -2.77492193	     85.38019341	      1.49016549	    -18.53413567	    -22.38885640	      0.00000000	     32.33520515	      8.92468198	    -10.49224967	     35.38035487	      0.61750368	      7.47895304	     -5.43666020	      0.00000000
      0.02000000	     -4.39510011	      7.96857350	      2.54150008	      2.36714285	      0.99623289	      1.02186309	      0.31528723	     -7.23997852	     -2.82193066	     88.72498418	      1.54854310	    -18.13291241	    -23.05847469	      0.00000000	     31.96142364	      9.24133613	    -10.21822356	     38.49570417	      0.67187679	      9.04073597	     -6.19720140	      0.00000000
      0.02666667	     -5.06838547	      7.82345915	      2.90165428	      2.36415999	      0.98988092	      1.02214211	      3.14854592	     -7.05814156	     -2.46055587	     92.23497523	      1.60980400	    -17.57380250	    -23.48083042	      0.00000000	     33.07177946	      9.08401146	     -9.87265416	     41.68024242	      0.72745746	     11.13808564	     -6.17767586	      0.00000000
      0.03333333	     -5.21939154	      7.88914103	      3.14566264	      2.36151368	      0.98461432	      1.02251834	      5.37465454	     -7.16862986	     -2.12322275	     95.40755749	      1.66517601	    -16.95641061	    -23.85557881	      0.00000000	     33.29053704	      9.02300706	     -9.86740466	     44.32168832	      0.77355939	     12.97782951	     -5.89632290	      0.00000000
      0.04000000	     -5.22520606	      7.90517584	      3.41831347	      2.35897962	      0.98009359	      1.02280574	      7.46509779	     -7.26596277	     -1.86629026	     98.28135525	      1.71533324	    -16.28580810	    -24.08136550	      0.00000000	     33.09347175	      8.98926036	     -9.66090172	     46.54955362	      0.81244298	     14.94583418	     -5.48858517	      0.00000000
      0.04666667	     -5.19170965	      7.86485603	      3.71183385	      2.35654496	      0.97621992	      1.02295732	      9.55016852	     -7.35881728	     -1.67223889	    100.85294933	      1.76021603	    -15.55057228	    -24.17946948	      0.00000000	     32.61552874	      8.94081075	     -9.35880697	     48.40626494	      0.84484870	     16.92954466	     -4.98119240	      0.00000000
      0.05333333	     -5.14614764	      7.80383252	      3.92231461	      2.35421154	      0.97302730	      1.02315044	     11.70205338	     -7.45029800	     -1.41368693	    103.14295836	      1.80018422	    -14.76965917	    -24.16577474	      0.00000000	     31.88629826	      8.83815829	     -9.09931238	     49.87003955	      0.87039639	     18.88561599	     -4.30533140	      0.00000000
      0.06000000	     -5.06152380	      7.71968611	      4.03059566	      2.35200216	      0.97055217	      1.02339013	     13.88290092	     -7.50953523	     -1.07707952	    105.12502966	      1.83477789	    -13.97162938	    -24.10532734	      0.00000000	     30.89102976	      8.66102439	     -8.91867867	     50.95991953	      0.88941838	     20.77531786	     -3.49291550	      0.00000000
      0.06666667	     -4.94503557	      7.58732922	      4.14522339	      2.34998763	      0.96875566	      1.02346390	     16.04026082	     -7.56596531	     -0.81344281	    106.77070022	      1.86350026	    -13.11678176	    -23.91046886	      0.00000000	     29.66874648	      8.47692714	     -8.65410096	     51.72541601	      0.90277882	     22.56099425	     -2.71246020	      0.00000000
      0.07333333	     -4.59087143	      7.40064140	      4.28333668	      2.34831582	      0.96827477	      1.02332381	     17.88514665	     -7.54950257	     -0.63816862	    107.94518312	      1.88399886	    -12.45705831	    -23.94156888	      0.00000000	     27.91890737	      8.37495332	     -8.09252162	     51.97802969	      0.90718776	     23.99578431	     -2.55710628	      0.00000000
      0.08000000	     -4.62894642	      7.22045772	      4.23951658	      2.34668990	      0.96762561	      1.02341386	     20.26429014	     -7.54104401	     -0.30328583	    108.94595594	      1.90146564	    -11.40696144	    -23.23909245	      0.00000000	     26.50748145	      8.03402646	     -8.09508081	     52.11357644	      0.90955349	     25.54247455	     -1.36244785	      0.00000000
      0.08666667	     -4.45911498	      6.96047026	      4.15683026	      2.34540879	      0.96805675	      1.02346184	     22.33480214	     -7.38769912	     -0.03263884	    109.49973818	      1.91113096	    -10.58961482	    -22.88706560	      0.00000000	     24.67402881	      7.69399051	     -7.89761025	     51.84816538	      0.90492120	     26.70222729	     -0.75013502	      0.00000000
      0.09333333	     -4.32937770	      6.64370506	      4.05986345	      2.34447295	      0.96913168	      1.02342081	     24.36908455	     -7.16492551	      0.15636121	    109.67263599	      1.91414860	     -9.75156689	    -22.50611443	      0.00000000	     22.72368345	      7.33162539	     -7.65850106	     51.26892283	      0.89481151	     27.59404018	     -0.29568374	      0.00000000
      0.10000000	     -4.18545375	      6.27589378	      3.91749974	      2.34382477	      0.97086768	      1.02349917	     26.29893689	     -6.82946745	      0.29510104	    109.49525227	      1.91105267	     -8.85688045	    -21.85908119	      0.00000000	     20.61337203	      6.85627412	     -7.54991516	     50.38826725	      0.87944117	     28.15608988	      0.44691437	      0.00000000
      0.10666667	     -4.34788729	      5.83143196	      3.84103999	      2.34337316	      0.97280969	      1.02348005	     28.45122386	     -6.40842869	      0.32137578	    108.97450738	      1.90196395	     -8.23568933	    -21.69432856	      0.00000000	     18.75149004	      6.47535583	     -7.11989055	     49.28332123	      0.86015622	     28.48634625	      0.68669234	      0.00000000
      0.11333333	     -3.81933959	      5.19864913	      3.56019414	      2.34370984	      0.97629100	      1.02379678	     29.63810939	     -5.68712188	      0.20558682	    107.98210088	      1.88464319	     -7.10391326	    -20.78707615	      0.00000000	     15.96452637	      5.59794281	     -7.24141243	     47.89162968	      0.83586662	     28.67107989	      1.55511858	      0.00000000
      0.12000000	     -3.92654210	      4.64945094	      3.23480592	      2.34397421	      0.97929915	      1.02420697	     31.48610080	     -4.97914255	      0.21842725	    106.81261461	      1.86423181	     -6.16828974	    -20.18065765	      0.00000000	     13.84155549	      4.98709191	     -7.18380191	     46.35008531	      0.80896160	     28.64645783	      1.87894626	      0.00000000
      0.12666667	     -3.55208838	      3.81567438	      3.07096683	      2.34500545	      0.98360540	      1.02444764	     32.47198618	     -4.07061436	     -0.21956728	    105.12510088	      1.83477914	     -5.28140106	    -19.63073915	      0.00000000	     11.09218511	      3.98586973	     -7.19156124	     44.62386487	      0.77883337	     28.51124348	      2.91224650	      0.00000000
      0.13333333	     -3.54378812	      3.09411797	      2.70730685	      2.34608482	      0.98766814	      1.02501449	     33.80947640	     -3.13189254	     -0.42216196	    103.27104392	      1.80241974	     -4.36245208	    -19.05169855	      0.00000000	      8.71147699	      3.14632034	     -7.36588674	     42.76874029	      0.74645533	     28.08872351	      3.56454317	      0.00000000
      0.14000000	     -3.42258169	      2.21438900	      2.40817515	      2.34756965	      0.99234709	      1.02558118	     34.79350544	     -2.05066546	     -0.83267364	    101.04327927	      1.76353791	     -3.51774899	    -18.63476453	      0.00000000	      6.17830804	      2.12312925	     -7.60465412	     40.79696639	      0.71204139	     27.23562687	      4.36876315	      0.00000000
      0.14666667	     -3.53235409	      1.53696314	      1.96239065	      2.34919124	      0.99691409	      1.02628820	     35.93363891	     -1.10022939	     -1.02812836	     98.65657563	      1.72188207	     -2.63123348	    -18.13184911	      0.00000000	      3.84848179	      1.40513984	     -7.93692436	     38.64339306	      0.67445444	     25.76353806	      4.72602349	      0.00000000
      0.15333333	     -3.58799634	      0.82446374	      1.53352968	      2.35107502	      1.00191663	      1.02696292	     36.81407154	     -0.11304997	     -1.29282155	     95.96304929	      1.67487117	     -1.80247238	    -17.70324206	      0.00000000	      1.44273304	      0.70083577	     -8.27331093	     36.34970487	      0.63442203	     23.65310099	      4.84871912	      0.00000000
      0.16000000	     -3.76428039	      0.26090111	      1.01900702	      2.35311229	      1.00687685	      1.02773042	     37.69270335	      0.77309439	     -1.42411790	     93.08450054	      1.62463102	     -1.00434569	    -17.27687334	      0.00000000	     -0.83499263	      0.22808711	     -8.67546650	     33.95067358	      0.59255104	     20.93473199	      4.71433771	      0.00000000
